<?xml version="1.0" encoding="UTF-8"?>
<svg width="35px" height="35px" viewBox="0 0 35 35" version="1.1" xmlns="http://www.w3.org/2000/svg" xmlns:xlink="http://www.w3.org/1999/xlink">
    <!-- Generator: sketchtool 59.1 (101010) - https://sketch.com -->
    <title>9A0AC86E-2453-4355-8083-FB6ECB8136F7</title>
    <desc>Created with sketchtool.</desc>
    <g id="Page-1" stroke="none" stroke-width="1" fill="none" fill-rule="evenodd">
        <g id="1920" transform="translate(-980.000000, -1991.000000)" fill-rule="nonzero">
            <g id="cvv" transform="translate(980.000000, 1991.000000)">
                <path d="M32.0833333,1.77635684e-13 L7.58333333,1.77635684e-13 C5.97330233,0.00191262928 4.66859523,1.29583702 4.66666667,2.89256198 L4.66666667,8.09917355 L2.91666667,8.09917355 C1.30663566,8.10108618 0.00192856786,9.39501057 0,10.9917355 L0,27.1900826 C0.00192856786,28.7868076 1.30663566,30.080732 2.91666667,30.0826446 L17.1389167,30.0826446 C19.3676316,31.5549199 22.2506627,31.6275925 24.5519167,30.2695041 L25.1276667,30.8404959 L24.7123333,31.2518182 C24.4846105,31.4777272 24.4846105,31.8439257 24.7123333,32.0698347 L26.775,34.1154545 C27.510731,34.8515243 28.587331,35.1409581 29.5971826,34.8741718 C30.6070341,34.6073856 31.3957805,33.8251578 31.6647899,32.8236521 C31.9337994,31.8221464 31.6419536,30.7544439 30.89975,30.0247934 L29.7669167,28.9019008 C30.1350256,28.4058316 30.3335004,27.8060034 30.3333333,27.1900826 L30.3333333,21.9834711 L32.0833333,21.9834711 C33.6933643,21.9815584 34.9980714,20.6876341 35,19.0909091 L35,2.89256198 C34.9980714,1.29583702 33.6933643,0.00191262928 32.0833333,1.77635684e-13 Z M2.91666667,9.25619835 L27.4166667,9.25619835 C28.383165,9.25619835 29.1666667,10.0332248 29.1666667,10.9917355 L29.1666667,11.5702479 L1.16666667,11.5702479 L1.16666667,10.9917355 C1.16666667,10.0332248 1.95016835,9.25619835 2.91666667,9.25619835 Z M14.5833333,5.78512397 C14.9054994,5.78512397 15.1666667,6.04413279 15.1666667,6.36363636 L15.1666667,8.09917355 L13.4166667,8.09917355 L13.4166667,5.78512397 L14.5833333,5.78512397 Z M12.25,8.09917355 L9.33333333,8.09917355 L9.33333333,6.36363636 C9.33333333,6.04413279 9.59450056,5.78512397 9.91666667,5.78512397 L12.25,5.78512397 L12.25,8.09917355 Z M22.1666667,7.52066116 C22.1666667,6.56215043 22.9501684,5.78512397 23.9166667,5.78512397 C24.883165,5.78512397 25.6666667,6.56215043 25.6666667,7.52066116 C25.6622239,7.71878472 25.6227353,7.91459562 25.55,8.09917355 L22.2833333,8.09917355 C22.210598,7.91459562 22.1711095,7.71878472 22.1666667,7.52066116 L22.1666667,7.52066116 Z M1.16666667,12.7272727 L29.1666667,12.7272727 L29.1666667,15.0413223 L1.16666667,15.0413223 L1.16666667,12.7272727 Z M28.8575,8.49198347 C28.4204254,8.23763102 27.9234242,8.10213513 27.4166667,8.09917355 L26.7668333,8.09917355 C26.8090707,7.90912865 26.8313562,7.7152578 26.8333333,7.52066116 C26.8312166,7.01756721 26.696482,6.5237675 26.4425,6.08826446 C27.1344216,5.61723814 28.0668005,5.70331841 28.6591632,6.29291406 C29.2515259,6.88250972 29.3349509,7.80748824 28.8575,8.49198347 L28.8575,8.49198347 Z M17.7916667,29.1240496 C17.7317143,29.055614 17.6563836,29.0021095 17.57175,28.9678512 C17.1052659,28.630286 16.6916812,28.2261626 16.3444167,27.768595 L25.6555833,27.768595 C23.8117146,30.2174596 20.3605609,30.8123135 17.7916667,29.1240496 L17.7916667,29.1240496 Z M26.25,26.6115702 L15.65725,26.6115702 C15.00314,25.1370654 15.00314,23.4579759 15.65725,21.9834711 C15.65725,21.9834711 26.3398333,21.977686 26.3421667,21.9834711 C26.9997069,23.4636544 26.9969532,25.1502832 26.3345833,26.6283471 C26.3068421,26.6207046 26.2785713,26.6150972 26.25,26.6115702 L26.25,26.6115702 Z M16.3444167,20.8264463 C17.441422,19.3700748 19.1669871,18.5123792 21,18.5123792 C22.8330129,18.5123792 24.558578,19.3700748 25.6555833,20.8264463 L16.3444167,20.8264463 Z M14.1055833,25.4545455 L4.66666667,25.4545455 L4.66666667,23.1404959 L14.1055833,23.1404959 C13.9648027,23.9055279 13.9648027,24.6895134 14.1055833,25.4545455 L14.1055833,25.4545455 Z M25.5179167,29.5914876 C25.8133024,29.343088 26.0876138,29.0710437 26.3380833,28.7780992 L26.7720833,29.2090909 L25.9525,30.0247934 L25.5179167,29.5914876 Z M30.0749167,33.297438 C29.3904782,33.9735018 28.2836884,33.9735018 27.59925,33.297438 L25.9495833,31.6608264 L28.4246667,29.2061983 L30.0749167,30.8422314 C30.7569344,31.5208821 30.7569344,32.6187873 30.0749167,33.297438 L30.0749167,33.297438 Z M28.8370833,27.9791736 C28.6092918,27.7533328 28.2400416,27.7533328 28.01225,27.9791736 L27.5969167,28.3910744 L27.0211667,27.8200826 C28.3760838,25.5483655 28.313198,22.710815 26.8589462,20.5003299 C25.4046944,18.2898448 22.8112418,17.0897199 20.1688689,17.4044844 C17.526496,17.719249 15.2933864,19.4943234 14.4083333,21.9834711 L4.08333333,21.9834711 C3.76116723,21.9834711 3.5,22.2424799 3.5,22.5619835 L3.5,26.0330579 C3.5,26.3525614 3.76116723,26.6115702 4.08333333,26.6115702 L14.4083333,26.6115702 C14.7145643,27.465435 15.1864128,28.2515735 15.79725,28.9256198 L2.91666667,28.9256198 C1.95016835,28.9256198 1.16666667,28.1485934 1.16666667,27.1900826 L1.16666667,16.1983471 L29.1666667,16.1983471 L29.1666667,27.1900826 C29.1637697,27.497032 29.0781754,27.7976315 28.91875,28.0607438 L28.8370833,27.9791736 Z M33.8333333,19.0909091 C33.8333333,20.0494198 33.0498316,20.8264463 32.0833333,20.8264463 L30.3333333,20.8264463 L30.3333333,10.9917355 C30.3311604,10.3666774 30.1230372,9.75945408 29.7406667,9.26256198 C30.6149793,8.11355426 30.5028128,6.5014863 29.4776504,5.48246716 C28.4524881,4.46344801 26.8272471,4.34851985 25.6666667,5.21297521 C24.7844273,4.55347018 23.6019295,4.44565297 22.6132274,4.93457023 C21.6245253,5.42348748 20.9997748,6.42499651 21,7.52066116 C21.0019772,7.7152578 21.0242626,7.90912865 21.0665,8.09917355 L16.3333333,8.09917355 L16.3333333,6.36363636 C16.3333333,5.40512564 15.5498316,4.62809917 14.5833333,4.62809917 L9.91666667,4.62809917 C8.95016835,4.62809917 8.16666667,5.40512564 8.16666667,6.36363636 L8.16666667,8.09917355 L5.83333333,8.09917355 L5.83333333,2.89256198 C5.83333333,1.93405126 6.61683502,1.15702479 7.58333333,1.15702479 L32.0833333,1.15702479 C33.0498316,1.15702479 33.8333333,1.93405126 33.8333333,2.89256198 L33.8333333,19.0909091 Z" id="Shape" fill="#333333"></path>
                <path d="M18.0833333,23.7190083 L18.6666667,23.7190083 C18.9888328,23.7190083 19.25,23.4599994 19.25,23.1404959 C19.25,22.8209923 18.9888328,22.5619835 18.6666667,22.5619835 L18.0833333,22.5619835 C17.116835,22.5619835 16.3333333,23.3390099 16.3333333,24.2975207 C16.3333333,25.2560314 17.116835,26.0330579 18.0833333,26.0330579 L18.6666667,26.0330579 C18.9888328,26.0330579 19.25,25.774049 19.25,25.4545455 C19.25,25.1350419 18.9888328,24.8760331 18.6666667,24.8760331 L18.0833333,24.8760331 C17.7611672,24.8760331 17.5,24.6170242 17.5,24.2975207 C17.5,23.9780171 17.7611672,23.7190083 18.0833333,23.7190083 Z" id="Path" fill="#000000"></path>
                <path d="M22.4274167,22.6227273 C22.2889627,22.5540776 22.1286727,22.5428184 21.9818442,22.591429 C21.8350157,22.6400397 21.7136896,22.7445339 21.6445833,22.8819008 L21,24.1609917 L20.3583333,22.8819008 C20.2143251,22.5959451 19.8638387,22.4799092 19.5755,22.6227273 C19.2871613,22.7655454 19.1701584,23.1131352 19.3141667,23.3990909 L20.4808333,25.7131405 C20.579512,25.909496 20.7816968,26.0335981 21.0029167,26.0335981 C21.2241366,26.0335981 21.4263213,25.909496 21.525,25.7131405 L22.6916667,23.3990909 C22.760682,23.2614268 22.7716057,23.1021803 22.7220257,22.9565149 C22.6724458,22.8108495 22.5664403,22.690747 22.4274167,22.6227273 L22.4274167,22.6227273 Z" id="Path" fill="#000000"></path>
                <path d="M25.9274167,22.6227273 C25.7889627,22.5540776 25.6286727,22.5428184 25.4818442,22.591429 C25.3350157,22.6400397 25.2136896,22.7445339 25.1445833,22.8819008 L24.5,24.1609917 L23.8583333,22.8819008 C23.7143251,22.5959451 23.3638387,22.4799092 23.0755,22.6227273 C22.7871613,22.7655454 22.6701584,23.1131352 22.8141667,23.3990909 L23.9808333,25.7131405 C24.079512,25.909496 24.2816968,26.0335981 24.5029167,26.0335981 C24.7241366,26.0335981 24.9263213,25.909496 25.025,25.7131405 L26.1916667,23.3990909 C26.260682,23.2614268 26.2716057,23.1021803 26.2220257,22.9565149 C26.1724458,22.8108495 26.0664403,22.690747 25.9274167,22.6227273 L25.9274167,22.6227273 Z" id="Path" fill="#000000"></path>
            </g>
        </g>
    </g>
</svg>