<?xml version="1.0" encoding="UTF-8"?>
<svg width="35px" height="35px" viewBox="0 0 35 35" version="1.1" xmlns="http://www.w3.org/2000/svg" xmlns:xlink="http://www.w3.org/1999/xlink">
    <!-- Generator: sketchtool 59.1 (101010) - https://sketch.com -->
    <title>048CF589-8E79-4B03-9833-F94024A5FAE9</title>
    <desc>Created with sketchtool.</desc>
    <g id="Page-1" stroke="none" stroke-width="1" fill="none" fill-rule="evenodd">
        <g id="1920" transform="translate(-980.000000, -1828.000000)" fill="#333333" fill-rule="nonzero">
            <g id="dollar" transform="translate(980.000000, 1828.000000)">
                <path d="M34.3451143,12.9417048 C33.1588087,8.52690582 30.2900086,4.75261978 26.353763,2.42802495 L28.3719751,1.88723493 C28.5728757,1.83337028 28.7297791,1.67641808 28.7835812,1.4755007 C28.8373834,1.27458333 28.7799105,1.06022492 28.632812,0.913172208 C28.4857135,0.766119497 28.2713372,0.708713294 28.0704366,0.762577963 L24.6970478,1.66661123 C24.3867476,1.74985426 24.202552,2.06874459 24.2854886,2.37912682 L25.1889397,5.7554262 C25.2428044,5.95632682 25.3997566,6.1132302 25.6006739,6.16703235 C25.8015913,6.2208345 26.0159497,6.16336159 26.1630024,6.01626311 C26.3100551,5.86916464 26.3674613,5.65478835 26.3135967,5.45388773 L25.7739709,3.43451143 C32.106486,7.17906697 35.1456886,14.7014731 33.1915696,21.7939947 C31.2374505,28.8865163 24.7744433,33.7908903 17.4176974,33.7638047 C10.0609515,33.7367192 3.63423214,28.7848887 1.73239085,21.6781705 C1.64811436,21.369015 1.3298295,21.1861028 1.02028435,21.2689366 C0.710739212,21.3517704 0.526344644,21.6691987 0.607733888,21.9791268 C2.65349961,29.6042776 9.55544039,34.912472 17.4502287,34.932474 C18.9862925,34.9315792 20.5155909,34.7290166 21.9989189,34.3299792 C31.3140758,31.8326093 36.8414297,22.2571443 34.3451143,12.9417048 Z" id="Path"></path>
                <path d="M14.0133888,4.52889813 C7.53762407,6.25909126 3.33922884,12.5114279 4.18849976,19.1603252 C5.03777068,25.8092226 10.6729642,30.8055042 17.3757173,30.8523909 L16.2475676,31.6964657 C16.0471176,31.8468031 15.9653571,32.1085405 16.0445918,32.3462449 C16.1238266,32.5839492 16.3462775,32.7442854 16.5968399,32.7442854 C16.7228551,32.7446644 16.8455291,32.7037731 16.9461123,32.6278586 L19.4562162,30.7499376 C19.7134133,30.5570398 19.7655381,30.1921659 19.5726403,29.9349688 L17.6964657,27.4248649 C17.5035679,27.1676678 17.1386939,27.115543 16.8814969,27.3084407 C16.6242998,27.5013385 16.572175,27.8662125 16.7650728,28.1234096 L17.9229106,29.670104 C11.5337987,29.9007084 6.04679431,25.1677756 5.33717352,18.8140076 C4.62755272,12.4602396 8.93518768,6.63339212 15.217749,5.44876033 C21.5003103,4.26412853 27.6341123,8.1221519 29.2870686,14.2980457 C29.3363837,14.5039418 29.4935994,14.6668284 29.6976195,14.7234055 C29.9016395,14.7799826 30.1202911,14.7213282 30.268603,14.5702364 C30.4169148,14.4191446 30.4714991,14.1994416 30.4111435,13.9965073 C28.4903054,6.85945924 21.1547356,2.62410452 14.0133888,4.52889813 Z" id="Path"></path>
                <path d="M26.7775468,17.4636175 C26.7775468,12.3196763 22.6075586,8.14968815 17.4636175,8.14968815 C12.3196763,8.14968815 8.14968815,12.3196763 8.14968815,17.4636175 C8.14968815,22.6075586 12.3196763,26.7775468 17.4636175,26.7775468 C22.605032,26.7714522 26.7714522,22.605032 26.7775468,17.4636175 Z M17.4636175,25.6133056 C12.962669,25.6133056 9.31392931,21.9645659 9.31392931,17.4636175 C9.31392931,12.962669 12.962669,9.31392931 17.4636175,9.31392931 C21.9645659,9.31392931 25.6133056,12.962669 25.6133056,17.4636175 C25.608493,21.962571 21.962571,25.608493 17.4636175,25.6133056 L17.4636175,25.6133056 Z" id="Shape"></path>
                <path d="M17.4636175,10.4781705 C13.6056616,10.4781705 10.4781705,13.6056616 10.4781705,17.4636175 C10.4781705,21.3215733 13.6056616,24.4490644 17.4636175,24.4490644 C21.3215733,24.4490644 24.4490644,21.3215733 24.4490644,17.4636175 C24.4448936,13.6073905 21.3198444,10.4823413 17.4636175,10.4781705 L17.4636175,10.4781705 Z M17.4636175,23.2848233 C14.2486543,23.2848233 11.6424116,20.6785807 11.6424116,17.4636175 C11.6424116,14.2486543 14.2486543,11.6424116 17.4636175,11.6424116 C20.6785807,11.6424116 23.2848233,14.2486543 23.2848233,17.4636175 C23.2812943,20.6771178 20.6771178,23.2812943 17.4636175,23.2848233 Z" id="Shape"></path>
                <path d="M1.16424116,17.4636175 C1.1745066,8.46597601 8.46597601,1.1745066 17.4636175,1.16424116 C17.7851138,1.16424116 18.045738,0.903616902 18.045738,0.582120582 C18.045738,0.260624262 17.7851138,1.04805054e-13 17.4636175,1.04805054e-13 C7.82324939,0.0109072187 0.0109072187,7.82324939 1.22568622e-13,17.4636175 C1.22568622e-13,17.7851138 0.260624265,18.045738 0.582120582,18.045738 C0.903616899,18.045738 1.16424116,17.7851138 1.16424116,17.4636175 L1.16424116,17.4636175 Z" id="Path"></path>
                <path d="M23.3698129,29.4128071 C23.463082,29.4128071 23.5549759,29.3903204 23.6375884,29.347027 C28.0768903,27.0482102 30.8608373,22.4628063 30.85241,17.4636175 C30.85241,17.1421211 30.5917666,16.8814969 30.2702703,16.8814969 C29.948774,16.8814969 29.6881497,17.1421211 29.6881497,17.4636175 C29.6957304,22.0283427 27.1537353,26.2152111 23.1002911,28.3143451 C22.86228,28.4382524 22.7398021,28.7088003 22.8037443,28.9694028 C22.8676866,29.2300054 23.1014807,29.4131372 23.3698129,29.4128071 Z" id="Path"></path>
                <path d="M17.4636175,14.5530146 C18.1066101,14.5530146 18.6278586,15.0742631 18.6278586,15.7172557 C18.6278586,16.038752 18.8884829,16.2993763 19.2099792,16.2993763 C19.5314755,16.2993763 19.7920998,16.038752 19.7920998,15.7172557 C19.7881327,14.6587209 19.0706691,13.7360626 18.045738,13.4714345 L18.045738,12.8066528 C18.045738,12.4851565 17.7851138,12.2245322 17.4636175,12.2245322 C17.1421211,12.2245322 16.8814969,12.4851565 16.8814969,12.8066528 L16.8814969,13.4714345 C15.7473664,13.7633364 15.0076506,14.8535521 15.1554902,16.0152759 C15.3033299,17.1769997 16.2925254,18.0471961 17.4636175,18.045738 C18.1066101,18.045738 18.6278586,18.5669866 18.6278586,19.2099792 C18.6278586,19.8529719 18.1066101,20.3742204 17.4636175,20.3742204 C16.8206248,20.3742204 16.2993763,19.8529719 16.2993763,19.2099792 C16.2993763,18.8884829 16.038752,18.6278586 15.7172557,18.6278586 C15.3957594,18.6278586 15.1351351,18.8884829 15.1351351,19.2099792 C15.1391022,20.268514 15.8565658,21.1911723 16.8814969,21.4558004 L16.8814969,22.1205821 C16.8814969,22.4420784 17.1421211,22.7027027 17.4636175,22.7027027 C17.7851138,22.7027027 18.045738,22.4420784 18.045738,22.1205821 L18.045738,21.4558004 C19.1798686,21.1638985 19.9195843,20.0736828 19.7717447,18.911959 C19.6239051,17.7502352 18.6347095,16.8800388 17.4636175,16.8814969 C16.8206248,16.8814969 16.2993763,16.3602484 16.2993763,15.7172557 C16.2993763,15.0742631 16.8206248,14.5530146 17.4636175,14.5530146 L17.4636175,14.5530146 Z" id="Path"></path>
            </g>
        </g>
    </g>
</svg>