<?xml version="1.0" encoding="UTF-8"?>
<svg width="35px" height="35px" viewBox="0 0 35 35" version="1.1" xmlns="http://www.w3.org/2000/svg" xmlns:xlink="http://www.w3.org/1999/xlink">
    <!-- Generator: sketchtool 59.1 (101010) - https://sketch.com -->
    <title>A9D7F6BD-2C11-4647-9E2A-0FA2107508FB</title>
    <desc>Created with sketchtool.</desc>
    <g id="Page-1" stroke="none" stroke-width="1" fill="none" fill-rule="evenodd">
        <g id="1920" transform="translate(-980.000000, -1692.000000)" fill="#333333" fill-rule="nonzero">
            <g id="insurance" transform="translate(980.000000, 1692.000000)">
                <path d="M23.125,19.25 C23.470178,19.25 23.75,18.9888328 23.75,18.6666667 C23.7067838,16.1133583 25.8704088,14.0018093 28.6053015,13.9282266 C31.3401943,13.854644 33.6305526,15.8463581 33.745,18.39775 C33.7527631,18.5507734 33.8254819,18.6946158 33.9470927,18.7975023 C34.0687036,18.9003887 34.2291989,18.9538525 34.393125,18.9460833 C34.7331557,18.9337527 35.0001317,18.6697956 34.9938621,18.35225 C34.7833192,10.1472948 28.1134009,3.34783942 19.375,2.43016667 L19.375,1.75 C19.3698714,0.785491375 18.5334021,0.00478673158 17.5,0 C16.4644661,0 15.625,0.783501688 15.625,1.75 L15.625,2.43016667 C6.88544751,3.34799566 0.215142079,10.1490914 0.00625,18.3551667 C-0.0072119333,18.6773328 0.261697037,18.9486855 0.606875001,18.96125 C0.952052964,18.9738145 1.24278805,18.7228328 1.25625,18.4006667 C1.39066388,15.8644725 3.67310783,13.8940657 6.3926754,13.9664515 C9.11224297,14.0388372 11.2706645,16.1274449 11.25,18.6666667 C11.25,18.9888328 11.529822,19.25 11.875,19.25 C12.220178,19.25 12.5,18.9888328 12.5,18.6666667 C12.5028639,16.76661 13.7383624,15.0574379 15.625,14.3435833 L15.625,30.9166667 C15.625,31.2388328 15.345178,31.5 15,31.5 C14.654822,31.5 14.375,31.2388328 14.375,30.9166667 L14.375,29.1666667 C14.375,28.2001684 13.5355339,27.4166667 12.5,27.4166667 C11.4644661,27.4166667 10.625,28.2001684 10.625,29.1666667 L10.625,30.9166667 C10.625,33.1718294 12.5837542,35 15,35 C17.4162458,35 19.375,33.1718294 19.375,30.9166667 L19.375,14.3435833 C21.2616376,15.0574379 22.4971361,16.76661 22.5,18.6666667 C22.5,18.9888328 22.779822,19.25 23.125,19.25 Z M33.118125,14.4981667 C31.8321315,13.3191796 30.0616204,12.7185071 28.2646409,12.8515492 C26.4676614,12.9845913 24.8207574,13.8382774 23.75,15.19175 L23.75,14.5833333 C23.7260307,10.5020507 22.0658147,6.57702 19.09625,3.58108333 C25.7120672,4.22433354 31.2536452,8.53886846 33.118125,14.4981667 L33.118125,14.4981667 Z M16.875,1.75 C16.875,1.4278339 17.154822,1.16666368 17.5,1.16666368 C17.6684014,1.16615727 17.8295053,1.23077983 17.945,1.34516667 C18.0616241,1.45156453 18.1266422,1.59779525 18.125,1.75 L18.125,2.34791667 C17.9275,2.3415 17.51,2.33333333 17.5,2.33333333 C17.49,2.33333333 17.0725,2.3415 16.875,2.34791667 L16.875,1.75 Z M11.25,14.5833333 L11.25,15.19175 C10.1792426,13.8382774 8.53233862,12.9845913 6.73535913,12.8515492 C4.93837964,12.7185071 3.16786847,13.3191796 1.881875,14.4981667 C3.74635476,8.53886846 9.2879328,4.22433354 15.90375,3.58108333 C12.9341853,6.57702 11.2739693,10.5020507 11.25,14.5833333 L11.25,14.5833333 Z M18.125,30.9166667 C18.125,32.5274972 16.7258898,33.8333333 15,33.8333333 C13.2741102,33.8333333 11.875,32.5274972 11.875,30.9166667 L11.875,29.1666667 C11.875,28.8445006 12.154822,28.5833333 12.5,28.5833333 C12.845178,28.5833333 13.125,28.8445006 13.125,29.1666667 L13.125,30.9166667 C13.125,31.883165 13.9644661,32.6666667 15,32.6666667 C16.0355339,32.6666667 16.875,31.883165 16.875,30.9166667 L16.875,14.04025 C17.289683,13.9865843 17.710317,13.9865843 18.125,14.04025 L18.125,30.9166667 Z M17.5,12.8333333 C15.527337,12.8365593 13.6727945,13.7113161 12.5,15.19175 L12.5,14.5833333 C12.5290534,10.4819331 14.3321476,6.56543209 17.5,3.72283333 C20.6678524,6.56543209 22.4709466,10.4819331 22.5,14.5833333 L22.5,15.19175 C21.3272055,13.7113161 19.472663,12.8365593 17.5,12.8333333 Z" id="Shape"></path>
                <path d="M28.75,27.4166667 C29.095178,27.4166667 29.375,27.6778339 29.375,28 C29.375,28.3221661 29.654822,28.5833333 30,28.5833333 C30.345178,28.5833333 30.625,28.3221661 30.625,28 C30.6217179,27.2610418 30.1214693,26.6036485 29.375,26.3573333 L29.375,25.6666667 C29.375,25.3445006 29.095178,25.0833333 28.75,25.0833333 C28.404822,25.0833333 28.125,25.3445006 28.125,25.6666667 L28.125,26.3573333 C27.2646578,26.6401639 26.7483164,27.4609091 26.9028829,28.2999372 C27.0574494,29.1389653 27.8378517,29.7516132 28.75,29.75 C29.095178,29.75 29.375,30.0111672 29.375,30.3333333 C29.375,30.6554994 29.095178,30.9166667 28.75,30.9166667 C28.404822,30.9166667 28.125,30.6554994 28.125,30.3333333 C28.125,30.0111672 27.845178,29.75 27.5,29.75 C27.154822,29.75 26.875,30.0111672 26.875,30.3333333 C26.8782821,31.0722915 27.3785307,31.7296848 28.125,31.976 L28.125,32.6666667 C28.125,32.9888328 28.404822,33.25 28.75,33.25 C29.095178,33.25 29.375,32.9888328 29.375,32.6666667 L29.375,31.976 C30.2353422,31.6931695 30.7516836,30.8724242 30.5971171,30.0333962 C30.4425506,29.1943681 29.6621483,28.5817202 28.75,28.5833333 C28.404822,28.5833333 28.125,28.3221661 28.125,28 C28.125,27.6778339 28.404822,27.4166667 28.75,27.4166667 L28.75,27.4166667 Z" id="Path"></path>
                <path d="M28.75,23.3333333 C25.2982203,23.3333333 22.5,25.9450056 22.5,29.1666667 C22.5,32.3883277 25.2982203,35 28.75,35 C32.2017797,35 35,32.3883277 35,29.1666667 C34.996211,25.9464716 32.200209,23.3368697 28.75,23.3333333 L28.75,23.3333333 Z M28.75,33.8333333 C25.9885763,33.8333333 23.75,31.7439955 23.75,29.1666667 C23.75,26.5893378 25.9885763,24.5 28.75,24.5 C31.5114237,24.5 33.75,26.5893378 33.75,29.1666667 C33.7469001,31.7427961 31.5101387,33.8304401 28.75,33.8333333 L28.75,33.8333333 Z" id="Shape"></path>
                <path d="M28.125,17.5 L28.125,21 C28.125,21.3221661 28.404822,21.5833333 28.75,21.5833333 C29.095178,21.5833333 29.375,21.3221661 29.375,21 L29.375,17.5 C29.375,17.1778339 29.095178,16.9166667 28.75,16.9166667 C28.404822,16.9166667 28.125,17.1778339 28.125,17.5 Z" id="Path"></path>
                <path d="M30.625,19.8333333 L30.625,22.1666667 C30.625,22.4888328 30.904822,22.75 31.25,22.75 C31.595178,22.75 31.875,22.4888328 31.875,22.1666667 L31.875,19.8333333 C31.875,19.5111672 31.595178,19.25 31.25,19.25 C30.904822,19.25 30.625,19.5111672 30.625,19.8333333 Z" id="Path"></path>
                <path d="M25.625,19.8333333 L25.625,22.1666667 C25.625,22.4888328 25.904822,22.75 26.25,22.75 C26.595178,22.75 26.875,22.4888328 26.875,22.1666667 L26.875,19.8333333 C26.875,19.5111672 26.595178,19.25 26.25,19.25 C25.904822,19.25 25.625,19.5111672 25.625,19.8333333 Z" id="Path"></path>
                <path d="M33.125,21.5833333 L33.125,23.3333333 C33.125,23.6554994 33.404822,23.9166667 33.75,23.9166667 C34.095178,23.9166667 34.375,23.6554994 34.375,23.3333333 L34.375,21.5833333 C34.375,21.2611672 34.095178,21 33.75,21 C33.404822,21 33.125,21.2611672 33.125,21.5833333 Z" id="Path"></path>
                <path d="M23.125,21.5833333 L23.125,23.3333333 C23.125,23.6554994 23.404822,23.9166667 23.75,23.9166667 C24.095178,23.9166667 24.375,23.6554994 24.375,23.3333333 L24.375,21.5833333 C24.375,21.2611672 24.095178,21 23.75,21 C23.404822,21 23.125,21.2611672 23.125,21.5833333 Z" id="Path"></path>
                <path d="M5.625,21 C2.86357625,21 0.625,23.0893378 0.625,25.6666667 C0.625,28.2439955 2.86357625,30.3333333 5.625,30.3333333 C8.38642375,30.3333333 10.625,28.2439955 10.625,25.6666667 C10.6219001,23.0905372 8.3851387,21.0028933 5.625,21 Z M5.625,29.1666667 C3.55393219,29.1666667 1.875,27.5996633 1.875,25.6666667 C1.875,23.73367 3.55393219,22.1666667 5.625,22.1666667 C7.69606781,22.1666667 9.375,23.73367 9.375,25.6666667 C9.37293289,27.5988636 7.69521098,29.1647374 5.625,29.1666667 Z" id="Shape"></path>
                <path d="M6.875,25.0833333 C7.22017797,25.0833333 7.5,24.8221661 7.5,24.5 C7.5,23.8556678 6.94035594,23.3333333 6.25,23.3333333 C6.25,23.0111672 5.97017797,22.75 5.625,22.75 C5.27982203,22.75 5,23.0111672 5,23.3333333 L5,23.3630833 C4.21479604,23.5134215 3.67883475,24.1939281 3.75940614,24.9382573 C3.83997752,25.6825865 4.51094504,26.2492855 5.3125,26.25 L5.9375,26.25 C6.11008898,26.25 6.25,26.3805836 6.25,26.5416667 C6.25,26.7027497 6.11008898,26.8333333 5.9375,26.8333333 L5,26.8333333 C5,26.5111672 4.72017797,26.25 4.375,26.25 C4.02982203,26.25 3.75,26.5111672 3.75,26.8333333 C3.75,27.4776655 4.30964406,28 5,28 C5,28.3221661 5.27982203,28.5833333 5.625,28.5833333 C5.97017797,28.5833333 6.25,28.3221661 6.25,28 L6.25,27.97025 C7.03520396,27.8199118 7.57116525,27.1394053 7.49059386,26.3950761 C7.41002248,25.6507469 6.73905496,25.0840479 5.9375,25.0833333 L5.3125,25.0833333 C5.13991102,25.0833333 5,24.9527497 5,24.7916667 C5,24.6305836 5.13991102,24.5 5.3125,24.5 L6.25,24.5 C6.25,24.8221661 6.52982203,25.0833333 6.875,25.0833333 Z" id="Path"></path>
                <path d="M6.25,19.8333333 L6.25,17.5 C6.25,17.1778339 5.97017797,16.9166667 5.625,16.9166667 C5.27982203,16.9166667 5,17.1778339 5,17.5 L5,19.8333333 C5,20.1554994 5.27982203,20.4166667 5.625,20.4166667 C5.97017797,20.4166667 6.25,20.1554994 6.25,19.8333333 Z" id="Path"></path>
                <path d="M3.75,19.8333333 L3.75,18.6666667 C3.75,18.3445006 3.47017797,18.0833333 3.125,18.0833333 C2.77982203,18.0833333 2.5,18.3445006 2.5,18.6666667 L2.5,19.8333333 C2.5,20.1554994 2.77982203,20.4166667 3.125,20.4166667 C3.47017797,20.4166667 3.75,20.1554994 3.75,19.8333333 Z" id="Path"></path>
                <path d="M8.75,19.8333333 L8.75,18.6666667 C8.75,18.3445006 8.47017797,18.0833333 8.125,18.0833333 C7.77982203,18.0833333 7.5,18.3445006 7.5,18.6666667 L7.5,19.8333333 C7.5,20.1554994 7.77982203,20.4166667 8.125,20.4166667 C8.47017797,20.4166667 8.75,20.1554994 8.75,19.8333333 Z" id="Path"></path>
            </g>
        </g>
    </g>
</svg>