<?xml version="1.0" encoding="UTF-8"?>
<svg width="20px" height="20px" viewBox="0 0 20 20" version="1.1" xmlns="http://www.w3.org/2000/svg" xmlns:xlink="http://www.w3.org/1999/xlink">
    <!-- Generator: sketchtool 59.1 (101010) - https://sketch.com -->
    <title>0C70BCE8-2AB9-4058-8AFA-0997A0F73092</title>
    <desc>Created with sketchtool.</desc>
    <g id="Page-1" stroke="none" stroke-width="1" fill="none" fill-rule="evenodd">
        <g id="768" transform="translate(-694.000000, -3616.000000)" fill="#333333" fill-rule="nonzero">
            <g id="Group-8" transform="translate(39.000000, 3601.000000)">
                <g id="plus-symbol" transform="translate(655.000000, 15.000000)">
                    <path d="M0.707035352,10.7117415 C0.313106564,10.7117415 0,10.3886274 0,9.99491159 C0,9.60119578 0.313106564,9.28825849 0.707035352,9.28825849 L9.28246412,9.28825849 L9.28246412,0.71682992 C9.28310052,0.323114108 9.60638941,0 10.0003182,0 C10.394247,0 10.7073535,0.323114108 10.7073535,0.71682992 L10.7073535,9.28825849 L19.2827823,9.28825849 C19.6767111,9.28825849 20,9.60119578 20,9.99491159 C20,10.3886274 19.6767111,10.7117415 19.2827823,10.7117415 L10.7073535,10.7117415 L10.7073535,19.2831701 C10.7073535,19.6768859 10.394247,20 10.0003182,20 C9.60638941,20 9.28310052,19.6768859 9.28310052,19.2831701 L9.28310052,10.7117415 L0.707035352,10.7117415 Z" id="Path"></path>
                    <path d="M0.707035352,10.7117415 C0.313106564,10.7117415 0,10.3886274 0,9.99491159 C0,9.60119578 0.313106564,9.28825849 0.707035352,9.28825849 L9.28246412,9.28825849 L9.28246412,0.71682992 C9.28310052,0.323114108 9.60638941,0 10.0003182,0 C10.394247,0 10.7073535,0.323114108 10.7073535,0.71682992 L10.7073535,9.28825849 L19.2827823,9.28825849 C19.6767111,9.28825849 20,9.60119578 20,9.99491159 C20,10.3886274 19.6767111,10.7117415 19.2827823,10.7117415 L10.7073535,10.7117415 L10.7073535,19.2831701 C10.7073535,19.6768859 10.394247,20 10.0003182,20 C9.60638941,20 9.28310052,19.6768859 9.28310052,19.2831701 L9.28310052,10.7117415 L0.707035352,10.7117415 Z" id="Path"></path>
                </g>
            </g>
        </g>
    </g>
</svg>