<?xml version="1.0" encoding="UTF-8"?>
<svg width="19px" height="14px" viewBox="0 0 19 14" version="1.1" xmlns="http://www.w3.org/2000/svg" xmlns:xlink="http://www.w3.org/1999/xlink">
    <!-- Generator: sketchtool 58 (101010) - https://sketch.com -->
    <title>4868F5C8-07F9-44B5-BBC2-63EFA2B0897B</title>
    <desc>Created with sketchtool.</desc>
    <g id="Page-1" stroke="none" stroke-width="1" fill="none" fill-rule="evenodd">
        <g id="UI-Kit-module-5" transform="translate(-296.000000, -1207.000000)" fill="#FFFFFF" fill-rule="nonzero">
            <g id="Checkboxes" transform="translate(130.000000, 960.000000)">
                <g id="Checked" transform="translate(0.000000, 239.000000)">
                    <path d="M184.65678,9.93259586 L182.989714,8.32992116 C182.76113,8.11000124 182.483128,8 182.156352,8 C181.829276,8 181.551274,8.11000124 181.32269,8.32992116 L173.281287,16.0723986 L169.677396,12.5959054 C169.448554,12.3759029 169.170724,12.2660255 168.843948,12.2660255 C168.516958,12.2660255 168.239128,12.3759029 168.010286,12.5959054 L166.34322,14.1986214 C166.114378,14.4185826 166,14.6857638 166,15.0000826 C166,15.3141536 166.114378,15.5815825 166.34322,15.8015025 L170.780559,20.0673629 L172.447754,21.6700376 C172.676467,21.8901226 172.954383,22 173.281287,22 C173.608063,22 173.885979,21.8898337 174.114821,21.6700376 L175.781973,20.0673629 L184.65678,11.5353944 C184.885407,11.3153919 185,11.048252 185,10.7339332 C185,10.4197796 184.885407,10.1525983 184.65678,9.93259586 Z" id="Path-Copy-1"></path>
                </g>
            </g>
        </g>
    </g>
</svg>